<svg width="708.317" height="472.747" xmlns="http://www.w3.org/2000/svg"><path style="fill:#f3d024;fill-opacity:1" d="M-136.29 19.153c-7.247-7.91-14.44-21.327-17.184-32.058-2.46-9.619-2.637-26.409-.386-36.667.869-3.958 3.851-11.91 6.628-17.672 4.5-9.338 6.093-11.517 14.67-20.063 8.48-8.447 10.871-10.195 20.123-14.71 14.236-6.949 22.576-8.661 38.875-7.984 9.299.386 14.329 1.104 19.092 2.723 6.748 2.295 18.033 7.654 18.033 8.564 0 .29-3.197 4.664-7.105 9.72-8.1 10.481-16.266 23.998-20.675 34.225-3.597 8.344-8.733 24.34-9.687 30.171-.655 4.006-1.024 4.362-9.33 9-16.43 9.176-32.354 22.668-42.297 35.838-2.28 3.02-4.277 5.491-4.438 5.491-.16 0-3.003-2.96-6.319-6.578z" transform="translate(313.342 268.182)"/><path style="fill:#f3d024;fill-opacity:1" d="M-240.743 137.418c-2.092-1.267-4.677-3.627-5.744-5.245-3.912-5.936-3.083-9.576 13.548-59.442 8.525-25.562 15.5-46.593 15.5-46.736 0-.143-20.138-10.337-44.75-22.655-24.613-12.317-45.733-23.455-46.933-24.752-4.778-5.157-5.551-12.087-2.05-18.357 2.126-3.809 4.385-5.085 47.233-26.696 24.75-12.482 45.405-22.855 45.9-23.05.495-.194-6.195-21.639-14.867-47.654-10.174-30.523-15.747-48.7-15.712-51.251.113-8.157 6.907-14.849 15.077-14.849 3.272 0 18.124 4.507 51.414 15.604 25.747 8.582 46.96 15.445 47.14 15.25.18-.195 10.48-20.67 22.888-45.5 23.635-47.297 24.431-48.558 31.54-49.98 4.548-.91 9.677.382 13.163 3.316 2.264 1.905 9.17 14.741 25.532 47.46 12.336 24.668 22.546 44.85 22.69 44.85.142 0 21.179-6.998 46.747-15.551 49.859-16.68 53.073-17.414 59.316-13.555 3.964 2.45 7.672 8.76 7.672 13.057 0 1.748-2.546 10.96-5.659 20.473l-5.658 17.295-10.902.662c-23.089 1.402-43.22 7.09-64.98 18.359l-12.698 6.576-3.302-2.49c-10.684-8.056-26.969-15.478-41.564-18.945-59.803-14.203-120.156 19.54-139.114 77.776-4.3 13.211-5.607 22.217-5.487 37.843.182 23.926 6.292 44.451 18.904 63.5 7.14 10.784 17.082 21.42 25.6 27.386 1.729 1.21 1.674 1.801-1.237 13.19-2.4 9.396-3.19 15.087-3.725 26.842l-.678 14.917-36.99 12.333c-20.344 6.782-38.57 12.33-40.5 12.327-1.93-.003-5.222-1.041-7.314-2.308z" transform="translate(313.342 268.182)"/><path style="fill:#d9e4f8;fill-opacity:1" d="M-26.97 203.702c-35.806-2.949-69-27.567-82.395-61.108-5.348-13.39-6.486-19.832-6.515-36.863-.022-13.072.333-16.832 2.266-24 2.911-10.801 10.504-26.694 16.589-34.724 13.179-17.391 34.91-31.924 54.502-36.446l5.084-1.173V1.966c0-13.474 5.18-33.634 12.264-47.735C-14.245-67.523 5.68-87.263 28.061-98.51c9.246-4.647 24.015-9.294 34.3-10.794 13.088-1.908 35.49-.787 47.537 2.38 11.613 3.05 28.223 10.74 37.525 17.37 7.964 5.678 21.849 18.817 25.592 24.219l2.696 3.89 5.378-2.379c13.948-6.168 35.823-8.94 51.2-6.487 38.35 6.118 67.849 31.784 79.79 69.425l3.135 9.883 8.424 2.403c35.014 9.991 61.65 38.312 69.526 73.923 2.721 12.308 2.332 32.236-.868 44.42-11.03 41.987-45.064 70.383-88.691 74-13.528 1.12-316.92 1.084-330.575-.04z" transform="translate(313.342 268.182)"/></svg>